<svg width="21" height="21" viewBox="0 0 21 21" fill="none" xmlns="http://www.w3.org/2000/svg">
<path d="M18.2875 1.75H2.7125C2.45723 1.75 2.21241 1.85141 2.03191 2.03191C1.85141 2.21241 1.75 2.45723 1.75 2.7125V18.2875C1.75 18.4139 1.7749 18.5391 1.82327 18.6558C1.87164 18.7726 1.94253 18.8787 2.03191 18.9681C2.12129 19.0575 2.22739 19.1284 2.34417 19.1767C2.46094 19.2251 2.5861 19.25 2.7125 19.25H11.095V12.4688H8.82V9.84375H11.095V7.875C11.0479 7.41279 11.1024 6.94586 11.2549 6.50697C11.4073 6.06808 11.6539 5.66785 11.9774 5.33436C12.3009 5.00087 12.6934 4.74219 13.1275 4.57646C13.5615 4.41073 14.0266 4.34197 14.49 4.375C15.171 4.37081 15.8517 4.40587 16.5287 4.48V6.8425H15.1375C14.035 6.8425 13.825 7.3675 13.825 8.12875V9.8175H16.45L16.1087 12.4425H13.825V19.25H18.2875C18.4139 19.25 18.5391 19.2251 18.6558 19.1767C18.7726 19.1284 18.8787 19.0575 18.9681 18.9681C19.0575 18.8787 19.1284 18.7726 19.1767 18.6558C19.2251 18.5391 19.25 18.4139 19.25 18.2875V2.7125C19.25 2.5861 19.2251 2.46094 19.1767 2.34417C19.1284 2.22739 19.0575 2.12129 18.9681 2.03191C18.8787 1.94253 18.7726 1.87164 18.6558 1.82327C18.5391 1.7749 18.4139 1.75 18.2875 1.75V1.75Z" fill="white"/>
</svg>
