<svg width="20" height="21" viewBox="0 0 20 21" fill="none" xmlns="http://www.w3.org/2000/svg">
<path d="M10 6.125C9.17591 6.125 8.37033 6.38159 7.68512 6.86232C6.99992 7.34305 6.46587 8.02633 6.1505 8.82576C5.83514 9.62519 5.75262 10.5049 5.91339 11.3535C6.07417 12.2022 6.471 12.9817 7.05372 13.5936C7.63644 14.2054 8.37887 14.6221 9.18712 14.7909C9.99538 14.9597 10.8332 14.8731 11.5945 14.542C12.3559 14.2108 13.0066 13.6501 13.4645 12.9306C13.9223 12.2112 14.1667 11.3653 14.1667 10.5C14.1667 9.33968 13.7277 8.22688 12.9463 7.40641C12.1649 6.58594 11.1051 6.125 10 6.125V6.125ZM10 13.125C9.50555 13.125 9.0222 12.971 8.61107 12.6826C8.19995 12.3942 7.87952 11.9842 7.6903 11.5045C7.50108 11.0249 7.45157 10.4971 7.54804 9.98789C7.6445 9.47869 7.8826 9.01096 8.23223 8.64384C8.58186 8.27673 9.02732 8.02672 9.51227 7.92544C9.99723 7.82415 10.4999 7.87614 10.9567 8.07482C11.4135 8.2735 11.804 8.60995 12.0787 9.04163C12.3534 9.47331 12.5 9.98082 12.5 10.5C12.5 11.1962 12.2366 11.8639 11.7678 12.3562C11.2989 12.8484 10.663 13.125 10 13.125ZM14.1667 5.25C14.0018 5.25 13.8407 5.30132 13.7037 5.39746C13.5667 5.49361 13.4598 5.63027 13.3968 5.79015C13.3337 5.95004 13.3172 6.12597 13.3493 6.2957C13.3815 6.46544 13.4609 6.62135 13.5774 6.74372C13.694 6.86609 13.8424 6.94943 14.0041 6.98319C14.1657 7.01695 14.3333 6.99962 14.4856 6.93339C14.6378 6.86717 14.768 6.75502 14.8596 6.61112C14.9511 6.46723 15 6.29806 15 6.125C15 5.89294 14.9122 5.67038 14.7559 5.50628C14.5996 5.34219 14.3877 5.25 14.1667 5.25ZM18.2833 7.21C18.2695 6.46225 18.1343 5.72245 17.8833 5.0225C17.6507 4.38556 17.293 3.80712 16.8336 3.32474C16.3742 2.84235 15.8233 2.46681 15.2167 2.2225C14.55 1.95904 13.8455 1.817 13.1333 1.8025C12.325 1.75 12.0583 1.75 10 1.75C7.94167 1.75 7.675 1.75 6.86667 1.8025C6.15452 1.817 5.44996 1.95904 4.78333 2.2225C4.17672 2.46681 3.62583 2.84235 3.16641 3.32474C2.707 3.80712 2.34935 4.38556 2.11667 5.0225C1.86575 5.72245 1.73047 6.46225 1.71667 7.21C1.66667 8.0675 1.66667 8.3475 1.66667 10.5C1.66667 12.6525 1.66667 12.9325 1.71667 13.79C1.73047 14.5378 1.86575 15.2775 2.11667 15.9775C2.34935 16.6144 2.707 17.1929 3.16641 17.6753C3.62583 18.1576 4.17672 18.5332 4.78333 18.7775C5.44996 19.041 6.15452 19.183 6.86667 19.1975C7.7 19.1975 7.94167 19.25 10 19.25C12.0583 19.25 12.325 19.25 13.1333 19.1975C13.8455 19.183 14.55 19.041 15.2167 18.7775C15.8233 18.5332 16.3742 18.1576 16.8336 17.6753C17.293 17.1929 17.6507 16.6144 17.8833 15.9775C18.1343 15.2775 18.2695 14.5378 18.2833 13.79C18.2833 12.915 18.3333 12.6525 18.3333 10.5C18.3333 8.3475 18.3333 8.0675 18.2833 7.21ZM16.6167 13.7113C16.6021 14.2665 16.5036 14.8159 16.325 15.3388C16.1773 15.7521 15.9439 16.1257 15.6417 16.4325C15.3512 16.75 14.9947 16.9926 14.6 17.1413C14.1008 17.3365 13.5742 17.4429 13.0417 17.4563C12.2583 17.4563 12.0167 17.5 9.99167 17.5C7.96667 17.5 7.73333 17.5 6.95 17.5C6.41835 17.4856 5.89229 17.3822 5.39167 17.1937C4.99805 17.0387 4.64223 16.7936 4.35 16.4762C4.04763 16.1712 3.8166 15.7969 3.675 15.3825C3.48984 14.8612 3.38846 14.3112 3.375 13.755C3.375 12.88 3.375 12.6613 3.375 10.5438C3.375 8.42625 3.375 8.1725 3.375 7.3325C3.38936 6.77356 3.4907 6.22084 3.675 5.69625C3.8188 5.28555 4.04961 4.91454 4.35 4.61125C4.64048 4.29376 4.99701 4.05118 5.39167 3.9025C5.89083 3.70728 6.41749 3.60082 6.95 3.5875C7.73333 3.5 7.975 3.5 10 3.5C12.025 3.5 12.2667 3.5 13.05 3.5C13.5851 3.51429 14.1144 3.6207 14.6167 3.815C15.0078 3.96599 15.3612 4.20834 15.65 4.52375C15.9524 4.82875 16.1834 5.20311 16.325 5.6175C16.529 6.14999 16.6446 6.71526 16.6667 7.28875C16.6667 8.16375 16.7083 8.3825 16.7083 10.5C16.7083 12.6175 16.6667 12.8713 16.6667 13.7113H16.6167Z" fill="white"/>
</svg>
