<svg width="21" height="21" viewBox="0 0 21 21" fill="none" xmlns="http://www.w3.org/2000/svg">
<path d="M19.4816 2.12431C19.2324 1.91705 18.9318 1.78122 18.6116 1.73126C18.2914 1.68131 17.9636 1.7191 17.6632 1.84062L1.98242 8.17155C1.64707 8.30953 1.36162 8.54622 1.16394 8.85022C0.966266 9.15422 0.865715 9.51115 0.875635 9.87363C0.885555 10.2361 1.00548 10.587 1.21949 10.8797C1.43349 11.1725 1.73147 11.3932 2.07386 11.5126L5.24573 12.6158L7.01367 18.4622C7.03769 18.5403 7.07256 18.6146 7.11725 18.683C7.12403 18.6935 7.13359 18.7014 7.1408 18.7116C7.19243 18.7836 7.25483 18.8473 7.32581 18.9003C7.34599 18.9157 7.36532 18.9302 7.3869 18.9438C7.46997 18.9989 7.56196 19.0392 7.65879 19.0629L7.66915 19.0638L7.67502 19.0663C7.73324 19.0781 7.79249 19.0842 7.8519 19.0842C7.85761 19.0842 7.86269 19.0815 7.86835 19.0814C7.958 19.0798 8.04688 19.0644 8.1318 19.0356C8.15156 19.0289 8.16849 19.0177 8.18766 19.0095C8.25099 18.9833 8.31099 18.9496 8.36642 18.9093C8.4108 18.8719 8.4552 18.8345 8.49961 18.7971L10.864 16.1867L14.3905 18.9185C14.7009 19.1602 15.0831 19.2916 15.4765 19.2919C15.8888 19.2914 16.2884 19.1491 16.6083 18.889C16.9281 18.6289 17.1488 18.2667 17.2334 17.8632L20.0882 3.84868C20.1529 3.53326 20.1307 3.20618 20.0238 2.90244C19.9169 2.59871 19.7295 2.32974 19.4816 2.12431V2.12431ZM8.19885 12.8943C8.07753 13.0152 7.99459 13.1692 7.96045 13.337L7.68963 14.653L7.00358 12.384L10.5607 10.5317L8.19885 12.8943ZM15.4629 17.535L11.2955 14.3068C11.1212 14.1721 10.9025 14.108 10.683 14.1273C10.4635 14.1466 10.2593 14.2479 10.1112 14.411L9.35397 15.2468L9.62158 13.9462L15.8192 7.74855C15.9671 7.60082 16.0573 7.40499 16.0733 7.19654C16.0893 6.98808 16.0301 6.78079 15.9064 6.61221C15.7828 6.44362 15.6029 6.3249 15.3992 6.27753C15.1956 6.23017 14.9817 6.25731 14.7964 6.35402L5.90176 10.9851L2.64295 9.79253L18.3741 3.49917L15.4629 17.535Z" fill="white"/>
</svg>
