<svg width="21" height="21" viewBox="0 0 21 21" fill="none" xmlns="http://www.w3.org/2000/svg">
<path d="M19.25 5.07494C18.5923 5.36027 17.8967 5.54889 17.185 5.63494C17.9359 5.18634 18.4986 4.48062 18.7688 3.64869C18.0631 4.06874 17.2907 4.3647 16.485 4.52369C15.9465 3.93969 15.2293 3.55095 14.4461 3.41843C13.6628 3.28592 12.8577 3.41713 12.1571 3.79148C11.4564 4.16583 10.8998 4.76215 10.5746 5.48692C10.2494 6.21169 10.1739 7.02391 10.36 7.79619C8.93325 7.72402 7.53764 7.35252 6.26382 6.70582C4.99001 6.05911 3.86649 5.15167 2.96625 4.04244C2.6505 4.59384 2.48458 5.21828 2.485 5.85369C2.48388 6.44377 2.62869 7.02498 2.90654 7.54556C3.18438 8.06614 3.58664 8.50994 4.0775 8.83744C3.50698 8.82192 2.94865 8.66883 2.45 8.39119V8.43494C2.45428 9.26172 2.74399 10.0616 3.27015 10.6994C3.79631 11.3372 4.5266 11.7736 5.3375 11.9349C5.02535 12.0299 4.70127 12.08 4.375 12.0837C4.14915 12.0811 3.92387 12.0606 3.70125 12.0224C3.93217 12.7336 4.37904 13.3552 4.97969 13.8006C5.58034 14.246 6.30488 14.493 7.0525 14.5074C5.79005 15.5008 4.2314 16.0429 2.625 16.0474C2.33252 16.0484 2.04027 16.0309 1.75 15.9949C3.39012 17.0539 5.30146 17.6161 7.25375 17.6137C8.60098 17.6277 9.93749 17.3731 11.1852 16.8648C12.433 16.3564 13.5669 15.6046 14.5208 14.6531C15.4747 13.7017 16.2295 12.5697 16.741 11.3232C17.2525 10.0768 17.5105 8.74095 17.5 7.39369C17.5 7.24494 17.5 7.08744 17.5 6.92994C18.1866 6.4179 18.7788 5.79019 19.25 5.07494V5.07494Z" fill="white"/>
</svg>
