<svg width="21" height="21" viewBox="0 0 21 21" fill="none" xmlns="http://www.w3.org/2000/svg">
<path d="M20.125 8.4963C20.1683 7.24387 19.8944 6.00081 19.3288 4.88255C18.945 4.4237 18.4124 4.11404 17.8238 4.00755C15.3891 3.78663 12.9443 3.69609 10.5 3.7363C8.06457 3.69426 5.62862 3.78188 3.2025 3.9988C2.72284 4.08605 2.27895 4.31103 1.925 4.6463C1.1375 5.37255 1.05 6.61505 0.962501 7.66505C0.835549 9.55292 0.835549 11.4472 0.962501 13.335C0.987814 13.926 1.07581 14.5126 1.225 15.085C1.3305 15.527 1.54396 15.9359 1.84625 16.275C2.20261 16.6281 2.65684 16.8659 3.15 16.9575C5.03643 17.1904 6.93719 17.2869 8.8375 17.2463C11.9 17.29 14.5862 17.2463 17.7625 17.0013C18.2678 16.9152 18.7348 16.6771 19.1013 16.3188C19.3462 16.0737 19.5292 15.7738 19.635 15.4438C19.9479 14.4836 20.1016 13.4786 20.09 12.4688C20.125 11.9788 20.125 9.0213 20.125 8.4963ZM8.5225 12.9938V7.57755L13.7025 10.2988C12.25 11.1038 10.3338 12.0138 8.5225 12.9938Z" fill="white"/>
</svg>
