<svg width="30" height="30" viewBox="0 0 30 30" fill="none" xmlns="http://www.w3.org/2000/svg">
<g id="location-pin">
<g id="Group">
<g id="Group_2">
<g id="Group_3">
<path id="XMLID_532_" d="M15 14.7058C17.9243 14.7058 20.295 12.3352 20.295 9.41085C20.295 6.48653 17.9243 4.11591 15 4.11591C12.0757 4.11591 9.70508 6.48653 9.70508 9.41085C9.70508 12.3352 12.0757 14.7058 15 14.7058Z" fill="#E2C4FF"/>
</g>
</g>
<path id="Vector" d="M22.9548 22.2904C22.2747 21.7221 21.3733 21.2338 20.3168 20.8567C22.9217 17.6149 25.5877 13.5687 25.5877 10.5875C25.5877 4.74961 20.8381 0 15.0001 0C9.16215 0 4.4126 4.74961 4.4126 10.5875C4.4126 13.5687 7.07855 17.6149 9.6834 20.8567C8.62701 21.2337 7.72555 21.7221 7.04551 22.2904C6.09277 23.0867 5.58922 24.0242 5.58922 25.0016C5.58928 27.8044 9.72295 30 15.0001 30C20.2773 30 24.411 27.8044 24.411 25.0016C24.411 24.0242 23.9075 23.0867 22.9548 22.2904V22.2904ZM15.0001 1.17188C20.192 1.17188 24.4158 5.39572 24.4158 10.5875C24.4158 14.8086 17.9509 22.0536 15.0001 25.0542C12.0477 22.0523 5.58447 14.8077 5.58447 10.5875C5.58447 5.39572 9.80832 1.17188 15.0001 1.17188V1.17188ZM20.9782 27.5976C17.6935 29.2399 12.3063 29.2397 9.02199 27.5976C7.58522 26.8791 6.76109 25.933 6.76109 25.0016C6.76109 23.7666 8.20801 22.5415 10.479 21.8257C12.5587 24.3059 14.4144 26.131 14.5906 26.3031C14.8182 26.5256 15.1818 26.5257 15.4095 26.3031C15.5857 26.131 17.4414 24.3059 19.5211 21.8257C21.7922 22.5415 23.2391 23.7666 23.2391 25.0016C23.2391 25.933 22.4151 26.8791 20.9782 27.5976Z" fill="#020288"/>
</g>
</g>
</svg>
