<svg width="30" height="30" viewBox="0 0 30 30" fill="none" xmlns="http://www.w3.org/2000/svg">
<g id="mail 1">
<g id="Group">
<g id="Group_2">
<path id="Vector" d="M26.866 12.0546C26.8658 12.0544 26.8656 12.0542 26.8653 12.054C26.8652 12.0538 26.865 12.0536 26.8648 12.0534C26.8646 12.0533 26.8645 12.0532 26.8644 12.0531C26.8643 12.053 26.8641 12.0528 26.864 12.0527C26.4501 11.6507 25.9035 11.4293 25.3247 11.4293H15.6767V12.6012H25.3247C25.3771 12.6012 25.4287 12.605 25.4797 12.6125L15.9328 21.9933L15.6822 22.2258H14.3175L14.0669 21.9933L4.51998 12.6125C4.57084 12.605 4.62258 12.6011 4.6749 12.6011H14.1808V11.4292H4.67484C4.09611 11.4292 3.54949 11.6507 3.13559 12.0527C3.13547 12.0528 3.13529 12.0529 3.13518 12.053C3.13506 12.0531 3.13494 12.0533 3.13482 12.0534C3.13465 12.0535 3.13447 12.0537 3.13424 12.0539C3.134 12.0541 3.13383 12.0543 3.13359 12.0545C2.70076 12.4746 2.4624 13.0378 2.4624 13.6407V27.7884C2.4624 28.43 2.74049 29.0385 3.22535 29.4582C3.22605 29.4588 3.22676 29.4593 3.2274 29.4599C3.62836 29.8083 4.14205 30 4.67484 30H25.3248C25.8576 30 26.3713 29.8083 26.7721 29.46C26.7728 29.4594 26.7735 29.4588 26.7742 29.4582C27.259 29.0386 27.5371 28.43 27.5371 27.7885V13.6407C27.5372 13.0379 27.2988 12.4747 26.866 12.0546V12.0546ZM3.71689 28.1941C3.66305 28.0673 3.63439 27.9296 3.63439 27.7885V13.6407C3.63439 13.5622 3.64307 13.485 3.65988 13.4103L12.137 21.7399L3.71689 28.1941ZM4.816 28.8281L12.9811 22.5694L13.689 23.2413C13.7974 23.3417 13.9397 23.3976 14.0875 23.3976H15.9122C16.06 23.3976 16.2023 23.3417 16.3107 23.2413L17.0186 22.5694L25.1836 28.8281H4.816ZM17.8627 21.7399L26.3398 13.4103C26.3566 13.485 26.3653 13.5622 26.3653 13.6407V27.7885C26.3653 27.9296 26.3367 28.0673 26.2828 28.1941L17.8627 21.7399Z" fill="#020288"/>
</g>
<g id="Group_3">
<g id="Group_4">
<path id="Vector_2" d="M12.8978 7.66471V15.5365H17.1016V7.66471H20.286L14.9997 0L9.71338 7.66471H12.8978Z" fill="#B2F0FB"/>
</g>
<path id="Vector_3" d="M19.1983 15.8988H10.8008C10.4772 15.8988 10.2148 15.6365 10.2148 15.3129C10.2148 14.9893 10.4772 14.727 10.8008 14.727H19.1983C19.5219 14.727 19.7843 14.9893 19.7843 15.3129C19.7843 15.6365 19.5219 15.8988 19.1983 15.8988Z" fill="#020288"/>
</g>
</g>
</g>
</svg>
