<svg width="30" height="30" viewBox="0 0 30 30" fill="none" xmlns="http://www.w3.org/2000/svg">
<g id="phone-call" clip-path="url(#clip0_36_1158)">
<g id="Group">
<g id="Group_2">
<path id="Vector" d="M9.38201 14.4281C9.999 13.6329 9.83822 12.4943 9.26863 11.6481C8.67255 10.7626 7.00398 8.24606 6.20781 7.71796C5.54365 7.27727 4.55957 7.29239 3.84871 7.72306C3.72648 7.79747 3.44998 8.04263 3.12402 8.34972L8.06828 15.5846C8.71925 15.021 9.3465 14.4738 9.38201 14.4281V14.4281Z" fill="#69FBC2"/>
<path id="Vector_2" d="M22.2856 26.1601C22.7172 25.4503 22.7324 24.4662 22.2917 23.8021C21.7636 23.0059 19.3276 21.4117 18.3615 20.7413C17.5235 20.1596 16.3759 20.0101 15.5805 20.6269C15.5358 20.6616 15.0117 21.2623 14.4614 21.8975L21.6443 26.9018C21.9583 26.5687 22.2103 26.2847 22.2856 26.1601V26.1601Z" fill="#69FBC2"/>
</g>
<g id="Group_3">
<g id="Group_4">
<path id="Vector_3" d="M24.3897 4.72659C24.1608 4.49784 23.7899 4.49784 23.5611 4.72659C23.3323 4.95539 23.3323 5.32641 23.5611 5.55528L24.3258 6.32004H16.3271C16.0036 6.32004 15.7412 6.58243 15.7412 6.90598C15.7412 7.22953 16.0036 7.49192 16.3271 7.49192H24.3258L23.5611 8.25662C23.3323 8.48543 23.3323 8.85645 23.5611 9.08532C23.79 9.31412 24.1608 9.31407 24.3897 9.08532L26.1547 7.32036C26.3834 7.09166 26.3835 6.72059 26.1547 6.49166L24.3897 4.72659Z" fill="#00008B"/>
<path id="Vector_4" d="M25.7403 10.4382H17.7416L18.5064 9.67353C18.7352 9.44473 18.7352 9.07371 18.5064 8.84484C18.2775 8.61609 17.9066 8.61609 17.6778 8.84484L15.9128 10.6098C15.684 10.8386 15.684 11.2096 15.9128 11.4385L17.6778 13.2035C17.9067 13.4323 18.2775 13.4323 18.5064 13.2035C18.7352 12.9747 18.7352 12.6037 18.5064 12.3748L17.7416 11.6101H25.7404C26.0639 11.6101 26.3263 11.3477 26.3263 11.0241C26.3263 10.7006 26.0639 10.4382 25.7403 10.4382V10.4382Z" fill="#00008B"/>
<path id="Vector_5" d="M21.0045 0C18.6019 0 16.343 0.935625 14.6441 2.63455C11.5111 5.76773 11.1606 10.6615 13.66 14.1888L13.2947 16.0151C13.2129 16.4243 13.5744 16.787 13.9842 16.7046L15.8104 16.3395C19.3057 18.8204 24.2048 18.5153 27.3648 15.3552C29.0638 13.6563 29.9994 11.3975 29.9994 8.9949C29.9994 4.02369 25.9764 0 21.0045 0V0ZM21.0054 16.8175C19.29 16.8175 17.6633 16.2742 16.3012 15.2466C16.1692 15.147 15.9996 15.1066 15.8334 15.1398L14.6163 15.3832L14.8597 14.1661C14.8926 14.0021 14.8536 13.8319 14.7529 13.6983C12.4203 10.6065 12.7298 6.20637 15.4729 3.4633C16.9504 1.98562 18.9149 1.17188 21.0045 1.17188C25.3279 1.17188 28.8275 4.67068 28.8275 8.9949C28.8275 13.3175 25.3295 16.8177 21.0054 16.8175Z" fill="#00008B"/>
<path id="Vector_6" d="M18.6959 20.26C17.6406 19.5275 16.2206 19.3892 15.2217 20.1639C15.1666 20.2066 15.0845 20.2702 12.9492 22.753C10.8473 22.042 7.96793 19.1624 7.25619 17.0597C9.73887 14.9244 9.8025 14.8422 9.84504 14.7873C10.5635 13.8615 10.5272 12.4685 9.75486 11.321C9.11724 10.3941 7.47234 7.85367 6.53191 7.22982C5.65963 6.65103 4.43021 6.6859 3.54428 7.22256C3.06398 7.51482 1.11644 9.49031 0.910839 9.75146C0.818261 9.87029 0.70412 9.974 0.59121 10.1955C-0.685255 12.7196 0.344062 17.3609 1.45787 19.9613C2.85305 23.2222 6.78668 27.156 10.0475 28.5511C11.7302 29.2723 14.4797 30 16.8288 30C18.0459 30 19.0501 29.8041 19.811 29.419C20.0321 29.3085 20.1374 29.1936 20.2607 29.0975C20.5203 28.8932 22.4973 26.9432 22.7865 26.4645C23.3426 25.5499 23.3401 24.3218 22.7802 23.4782C22.179 22.5716 19.7484 20.9901 18.6959 20.26V20.26ZM21.7851 25.8558C21.5866 26.169 19.7825 27.978 19.5381 28.1748C19.3959 28.2856 19.3573 28.3356 19.2844 28.3721C17.1662 29.444 12.7096 28.417 10.5087 27.4738C7.53381 26.2009 3.80789 22.475 2.53512 19.5C1.51898 17.1278 0.568534 12.8369 1.636 10.7261C1.67133 10.6569 1.72928 10.6075 1.83269 10.4747C2.03162 10.2278 3.84082 8.42256 4.15236 8.22422C4.68275 7.90295 5.42203 7.89972 5.88392 8.20623C6.57668 8.66578 8.32008 11.2869 8.78262 11.9753C9.18404 12.5717 9.38426 13.4373 8.93853 14.0432C8.71125 14.2572 7.16203 15.5955 6.20789 16.4154C6.0423 16.5578 5.96959 16.7804 6.01916 16.993C6.63808 19.6447 10.3654 23.3719 13.016 23.9899C13.2288 24.0394 13.4512 23.9667 13.5935 23.8011C14.4134 22.8468 15.7517 21.2975 15.9656 21.0704C16.5565 20.6356 17.4226 20.8027 18.0277 21.2227C18.7545 21.727 21.3466 23.437 21.8037 24.126C22.1111 24.5892 22.1031 25.3328 21.7851 25.8558V25.8558Z" fill="#00008B"/>
</g>
</g>
</g>
</g>
<defs>
<clipPath id="clip0_36_1158">
<rect width="30" height="30" fill="white"/>
</clipPath>
</defs>
</svg>
