<svg width="24" height="24" viewBox="0 0 24 24" fill="none" xmlns="http://www.w3.org/2000/svg">
<path d="M8.46002 11.29L14.12 5.64001C14.213 5.54628 14.3236 5.47188 14.4454 5.42111C14.5673 5.37035 14.698 5.34421 14.83 5.34421C14.962 5.34421 15.0927 5.37035 15.2146 5.42111C15.3365 5.47188 15.4471 5.54628 15.54 5.64001C15.7263 5.82737 15.8308 6.08082 15.8308 6.34501C15.8308 6.60919 15.7263 6.86264 15.54 7.05001L10.59 12.05L15.54 17C15.7263 17.1874 15.8308 17.4408 15.8308 17.705C15.8308 17.9692 15.7263 18.2226 15.54 18.41C15.4474 18.5045 15.337 18.5797 15.2151 18.6312C15.0932 18.6827 14.9623 18.7095 14.83 18.71C14.6977 18.7095 14.5668 18.6827 14.445 18.6312C14.3231 18.5797 14.2126 18.5045 14.12 18.41L8.46002 12.76C8.35851 12.6664 8.2775 12.5527 8.2221 12.4262C8.16669 12.2997 8.13809 12.1631 8.13809 12.025C8.13809 11.8869 8.16669 11.7503 8.2221 11.6238C8.2775 11.4973 8.35851 11.3836 8.46002 11.29V11.29Z" fill="#316AC0"/>
</svg>
