<svg xmlns="http://www.w3.org/2000/svg" version="1.1" xmlns:xlink="http://www.w3.org/1999/xlink" width="512" height="512" x="0" y="0" viewBox="0 0 152 152" style="enable-background:new 0 0 512 512" xml:space="preserve" class=""><g><path d="M30.6 141c10.6-.3 19-9.2 18.7-19.9-.3-10.2-8.5-18.4-18.7-18.7-10.6-.3-19.5 8.1-19.8 18.7-.3 10.7 8 19.5 18.7 19.9z" fill="#000000" opacity="1" data-original="#000000" data-darkreader-inline-fill="" style="--darkreader-inline-fill: #000000;" class=""></path><path d="M72.6 137.2c0 1.3-.1 2.5-.2 3.8h22.8c0-1.3.2-2.5.2-3.8-.3-44.3-36-80.2-80.2-80.5-1.3 0-2.5.1-3.8.2v22.9c1.3-.1 2.5-.2 3.8-.2 31.6.2 57.1 25.9 57.4 57.6z" fill="#000000" opacity="1" data-original="#000000" data-darkreader-inline-fill="" style="--darkreader-inline-fill: #000000;" class=""></path><path d="M15.2 11c-1.3 0-2.5.2-3.8.2V34c1.3 0 2.5-.2 3.8-.2 56.7.3 102.6 46.4 102.9 103.3 0 1.3-.1 2.5-.2 3.8h22.7c0-1.3.2-2.5.2-3.8C140.6 67.6 84.5 11.2 15.2 11z" fill="#000000" opacity="1" data-original="#000000" data-darkreader-inline-fill="" style="--darkreader-inline-fill: #000000;" class=""></path></g></svg>